<?xml version="1.0" encoding="utf-8"?>
<svg xmlns="http://www.w3.org/2000/svg" width="470" height="470" viewBox="0 0 470 470">
  <defs>
    <linearGradient id="unblock-skype-with-vpn-a" x1="100%" x2="0%" y1="50%" y2="50%">
      <stop offset="0%" stop-color="#35538A" stop-opacity="0"/>
      <stop offset="100%" stop-color="#B6D1D0"/>
      <stop offset="100%" stop-color="#B6D1D0"/>
    </linearGradient>
    <filter id="unblock-skype-with-vpn-b">
      <feColorMatrix in="SourceGraphic" values="0 0 0 0 1.000000 0 0 0 0 1.000000 0 0 0 0 1.000000 0 0 0 1.000000 0"/>
    </filter>
  </defs>
  <g fill="none" fill-rule="evenodd">
    <path fill="url(#unblock-skype-with-vpn-a)" fill-opacity=".3" d="M235.51087,470 C322.223577,470 400.727201,470 471.021739,470 L471.021739,0 C355.43074,0 276.927117,0 235.51087,0 C105.441808,0 -3.69482223e-13,105.213084 -3.69482223e-13,235 C-3.69482223e-13,364.786916 105.441808,470 235.51087,470 Z" transform="translate(-1)"/>
    <g filter="url(#unblock-skype-with-vpn-b)">
      <path fill="#03A9F4" fill-rule="nonzero" d="M192.275979,117.595658 C206.539444,54.4709451 150.388335,-2.87474483 84.4464804,8.13368782 C48.6483015,-13.7457741 0.983050847,10.9787453 0.983050847,52.9271781 C0.983050847,62.6828155 3.71592421,71.8160967 8.46767698,79.6885 C-4.78634846,142.958699 51.8243435,199.479969 117.70875,187.719859 C125.39034,191.720721 134.155231,194 143.469979,194 C184.085566,194 210.093,152.512273 192.275979,117.595658 Z M100.252829,160.691813 C81.0324404,160.691813 62.2552205,156.125172 51.1431769,140.493521 C34.5818002,117.425924 56.4201666,105.884044 67.1382825,114.677858 C76.0837238,122.105721 73.276989,140.073229 99.5470419,140.073229 C111.126875,140.073229 125.423167,135.207534 125.423167,123.900047 C125.423167,101.147669 74.1715331,111.913626 53.793982,87.1082806 C46.3093558,78.0234948 44.8977816,61.9957988 54.0894277,50.3730924 C70.1091538,30.0697276 117.117858,28.8330975 137.331273,44.1656942 C155.993597,58.3909817 150.954606,77.2718177 135.895078,77.2718177 C117.782611,77.2718177 127.302531,53.9294142 98.0616063,53.9294142 C76.8633724,53.9294142 68.5252362,68.777058 83.4534544,76.0028574 C103.322182,85.7180821 155.26319,82.687126 155.26319,121.289383 C155.197535,148.422502 128.615623,160.691813 100.252829,160.691813 L100.252829,160.691813 Z" transform="translate(136.017 138)"/>
    </g>
  </g>
</svg>